<svg width="32" height="32" viewBox="0 0 32 32" fill="none" xmlns="http://www.w3.org/2000/svg">
<rect width="32" height="32" rx="16" fill="#B2B4BC"/>
<path d="M22.3 9.71C21.91 9.32 21.28 9.32 20.89 9.71L16 14.59L11.11 9.7C10.72 9.31 10.09 9.31 9.7 9.7C9.31 10.09 9.31 10.72 9.7 11.11L14.59 16L9.7 20.89C9.31 21.28 9.31 21.91 9.7 22.3C10.09 22.69 10.72 22.69 11.11 22.3L16 17.41L20.89 22.3C21.28 22.69 21.91 22.69 22.3 22.3C22.69 21.91 22.69 21.28 22.3 20.89L17.41 16L22.3 11.11C22.68 10.73 22.68 10.09 22.3 9.71Z" fill="white"/>
</svg>
