<svg width="16" height="16" viewBox="0 0 16 16" fill="none" xmlns="http://www.w3.org/2000/svg">
<g clip-path="url(#clip0_646_4942)">
<path d="M9.88086 2.68701L1.07744 11.4911C1.03315 11.5355 1.00117 11.5916 0.985939 11.6519L0.0101637 15.5684C-0.0190245 15.6863 0.0156207 15.8117 0.101662 15.8977C0.166765 15.9628 0.255472 15.9989 0.346209 15.9989C0.374001 15.9989 0.402428 15.9955 0.430094 15.9885L4.34665 15.0126C4.40769 14.9973 4.46315 14.9655 4.50744 14.9212L13.3116 6.11777L9.88086 2.68701Z" fill="white"/>
<path d="M15.4924 1.48755L14.5124 0.507583C13.8574 -0.147376 12.7159 -0.146742 12.0617 0.507583L10.8613 1.70798L14.292 5.13861L15.4924 3.93822C15.8195 3.61118 15.9997 3.1759 15.9997 2.71294C15.9997 2.24999 15.8195 1.81471 15.4924 1.48755Z" fill="white"/>
</g>
<defs>
<clipPath id="clip0_646_4942">
<rect width="16" height="16" fill="white"/>
</clipPath>
</defs>
</svg>
